<?xml version="1.0" encoding="utf-8"?>
<!-- Generator: Adobe Illustrator 23.0.1, SVG Export Plug-In . SVG Version: 6.00 Build 0)  -->
<svg version="1.1" id="_x3C_Layer_x3E_" xmlns="http://www.w3.org/2000/svg" xmlns:xlink="http://www.w3.org/1999/xlink" x="0px"
	 y="0px" viewBox="0 0 3116 1640" style="enable-background:new 0 0 3116 1640;" xml:space="preserve">
<style type="text/css">
	.st0{fill:#EBF3FA;}
	.st1{fill:#FFB93E;}
	.st2{fill:#FFA412;}
	.st3{fill:#82B378;}
	.st4{fill:#E2810E;}
	.st5{fill:#FFB27D;}
	.st6{fill:#ED975D;}
	.st7{fill:#A9453D;}
	.st8{fill:#2C3A64;}
	.st9{fill:#2B478B;}
	.st10{fill:#233862;}
	.st11{fill:#1E3D70;}
	.st12{fill:#2A4E96;}
	.st13{opacity:0.2;fill:#ED9F4A;}
	.st14{opacity:0.6;fill:#ED9F4A;}
	.st15{fill:#F9DDBF;}
	.st16{fill:#F1A34F;}
	.st17{fill:#E5C1A1;}
	.st18{opacity:0.5;fill:#E2810E;}
	.st19{fill:#ED985F;}
	.st20{fill:#ED7D2B;}
	.st21{fill:#F99746;}
	.st22{fill:#2E3552;}
</style>
<g>
	<path class="st0" d="M434.12,1499.97c0,0-301.29-323.49-50.95-673.72c222.12-310.74,481.08-289.5,671.08-163.4
		c80.92,53.71,314.23,6.62,512.81-309.57c270.8-431.2,1209.51-169.68,1038.36,493.74c-82.83,321.05,252.08,332.72,81.43,653.63
		L434.12,1499.97z"/>
	<g>
		<path class="st1" d="M1858.16,1154.94l23.11,3.8c1.84,0.3,3.47,1.08,4.75,2.15c1.35,1.13,2.32,2.6,2.73,4.21
			c0.13,0.49,0.21,0.99,0.22,1.5c0.02,0.46-0.01,0.93-0.08,1.4l-53.17,322.25c-0.69,4.15-5.01,6.96-9.73,6.4
			c-0.15-0.02-0.31-0.04-0.46-0.07l-23.11-3.8c-0.15-0.03-0.3-0.05-0.46-0.08c-4.65-0.98-7.85-5.02-7.16-9.18l53.17-322.25
			c0.08-0.47,0.2-0.92,0.37-1.35c0.18-0.47,0.41-0.93,0.69-1.35c0.91-1.39,2.29-2.47,3.94-3.11
			C1854.53,1154.85,1856.32,1154.64,1858.16,1154.94z"/>
		<path class="st2" d="M1864.07,1318.45l-28.49,172.64c-0.61,3.71-4.88,6.14-9.6,5.56c-0.15-0.02-0.31-0.04-0.46-0.07l-23.11-3.8
			c-0.15-0.03-0.3-0.05-0.46-0.08c-4.66-0.96-7.91-4.63-7.3-8.34l24.99-151.44C1832.09,1332.48,1849.69,1329.59,1864.07,1318.45z"/>
		<g>
			
				<rect x="1861.09" y="1177.15" transform="matrix(0.1631 -0.9866 0.9866 0.1631 377.3245 2840.5747)" class="st2" width="3.71" height="41.47"/>
			
				<rect x="1859.04" y="1189.55" transform="matrix(0.1626 -0.9867 0.9867 0.1626 364.1644 2849.6484)" class="st2" width="3.71" height="41.47"/>
			
				<rect x="1856.59" y="1204.41" transform="matrix(0.1629 -0.9866 0.9866 0.1629 346.9786 2859.2502)" class="st2" width="3.71" height="41.47"/>
			
				<rect x="1852.83" y="1227.2" transform="matrix(0.1628 -0.9867 0.9867 0.1628 321.4614 2874.7258)" class="st2" width="3.71" height="41.47"/>
			
				<rect x="1848.86" y="1251.3" transform="matrix(0.1628 -0.9867 0.9867 0.1628 294.3135 2890.9355)" class="st2" width="3.71" height="41.47"/>
			
				<rect x="1842.76" y="1288.24" transform="matrix(0.1626 -0.9867 0.9867 0.1626 253.1171 2916.2029)" class="st2" width="3.71" height="41.47"/>
			
				<rect x="1837.05" y="1322.83" transform="matrix(0.1631 -0.9866 0.9866 0.1631 213.4662 2938.7798)" class="st2" width="3.71" height="41.47"/>
			
				<rect x="1831.96" y="1353.72" transform="matrix(0.1628 -0.9867 0.9867 0.1628 179.1559 2960.0491)" class="st2" width="3.71" height="41.47"/>
			
				<rect x="1863.04" y="1165.35" transform="matrix(0.1626 -0.9867 0.9867 0.1626 391.3567 2833.2983)" class="st2" width="3.71" height="41.47"/>
			
				<rect x="1864.32" y="1157.55" transform="matrix(0.1628 -0.9867 0.9867 0.1628 399.7601 2827.7136)" class="st2" width="3.71" height="41.47"/>
			
				<rect x="1865.57" y="1150.02" transform="matrix(0.1626 -0.9867 0.9867 0.1626 408.5947 2822.9602)" class="st2" width="3.71" height="41.47"/>
			<path class="st2" d="M1847.59,1163.56l40.92,6.73l0.38-2.29c0.08-0.47,0.1-0.94,0.08-1.4l-40.64-6.68
				c-0.17,0.43-0.29,0.88-0.37,1.35L1847.59,1163.56z"/>
			<path class="st2" d="M1849.03,1158.57l39.72,6.53c-0.41-1.6-1.38-3.07-2.73-4.21l-33.06-5.44
				C1851.33,1156.1,1849.94,1157.18,1849.03,1158.57z"/>
		</g>
	</g>
	<g>
		<path class="st1" d="M1900.09,1154.94l23.11,3.8c1.84,0.3,3.47,1.08,4.75,2.15c1.35,1.13,2.32,2.6,2.73,4.21
			c0.13,0.49,0.2,0.99,0.22,1.5c0.02,0.46-0.01,0.93-0.08,1.4l-53.17,322.25c-0.69,4.15-5.01,6.96-9.73,6.4
			c-0.15-0.02-0.31-0.04-0.46-0.07l-23.11-3.8c-0.15-0.03-0.3-0.05-0.46-0.08c-4.65-0.98-7.85-5.02-7.16-9.18l53.17-322.25
			c0.08-0.47,0.2-0.92,0.37-1.35c0.18-0.47,0.41-0.93,0.69-1.35c0.91-1.39,2.29-2.47,3.94-3.11
			C1896.46,1154.85,1898.25,1154.64,1900.09,1154.94z"/>
		<path class="st2" d="M1906,1318.45l-28.49,172.64c-0.61,3.71-4.88,6.14-9.6,5.56c-0.15-0.02-0.31-0.04-0.46-0.07l-23.11-3.8
			c-0.15-0.03-0.3-0.05-0.46-0.08c-4.66-0.96-7.91-4.63-7.3-8.34l24.99-151.44C1874.02,1332.48,1891.61,1329.59,1906,1318.45z"/>
		<g>
			
				<rect x="1903.02" y="1177.15" transform="matrix(0.1631 -0.9866 0.9866 0.1631 412.4137 2881.9392)" class="st2" width="3.71" height="41.47"/>
			
				<rect x="1900.97" y="1189.55" transform="matrix(0.1626 -0.9867 0.9867 0.1626 399.3183 2891.0564)" class="st2" width="3.71" height="41.47"/>
			
				<rect x="1898.52" y="1204.41" transform="matrix(0.1629 -0.9866 0.9866 0.1629 382.0759 2900.616)" class="st2" width="3.71" height="41.47"/>
			
				<rect x="1894.76" y="1227.2" transform="matrix(0.1628 -0.9867 0.9867 0.1628 356.5175 2916.0513)" class="st2" width="3.71" height="41.47"/>
			
				<rect x="1890.78" y="1251.3" transform="matrix(0.1628 -0.9867 0.9867 0.1628 329.4128 2932.302)" class="st2" width="3.71" height="41.47"/>
			
				<rect x="1884.69" y="1288.24" transform="matrix(0.1629 -0.9866 0.9866 0.1629 287.787 2957.1453)" class="st2" width="3.71" height="41.47"/>
			
				<rect x="1878.98" y="1322.83" transform="matrix(0.1628 -0.9867 0.9867 0.1628 248.9466 2980.5342)" class="st2" width="3.71" height="41.47"/>
			
				<rect x="1873.88" y="1353.72" transform="matrix(0.1628 -0.9867 0.9867 0.1628 214.2134 3001.3716)" class="st2" width="3.71" height="41.47"/>
			
				<rect x="1904.96" y="1165.35" transform="matrix(0.1629 -0.9866 0.9866 0.1629 426.0162 2874.2725)" class="st2" width="3.71" height="41.47"/>
			
				<rect x="1906.25" y="1157.55" transform="matrix(0.1626 -0.9867 0.9867 0.1626 435.3087 2869.4712)" class="st2" width="3.71" height="41.47"/>
			
				<rect x="1907.49" y="1150.02" transform="matrix(0.1626 -0.9867 0.9867 0.1626 443.703 2864.3279)" class="st2" width="3.71" height="41.47"/>
			<path class="st2" d="M1889.52,1163.56l40.92,6.73l0.38-2.29c0.08-0.47,0.1-0.94,0.08-1.4l-40.64-6.68
				c-0.17,0.43-0.29,0.88-0.37,1.35L1889.52,1163.56z"/>
			<path class="st2" d="M1890.96,1158.57l39.72,6.53c-0.41-1.6-1.38-3.07-2.73-4.21l-33.06-5.44
				C1893.25,1156.1,1891.86,1157.18,1890.96,1158.57z"/>
		</g>
	</g>
	<g>
		<g>
			<path class="st1" d="M1746.76,1464.31l-0.04,23.42c0,1.87-0.5,3.6-1.36,5.04c-0.9,1.51-2.2,2.7-3.71,3.37
				c-0.46,0.21-0.95,0.36-1.45,0.46c-0.45,0.09-0.92,0.14-1.39,0.14l-326.61-0.78c-4.21-0.01-7.67-3.83-7.88-8.58
				c0-0.16-0.01-0.31-0.01-0.46l0.04-23.42c0-0.15,0-0.31,0.01-0.46c0.22-4.75,3.7-8.55,7.91-8.54l326.61,0.78
				c0.47,0,0.94,0.05,1.39,0.15c0.5,0.1,0.98,0.26,1.45,0.47c1.51,0.67,2.81,1.87,3.7,3.39
				C1746.27,1460.71,1746.77,1462.44,1746.76,1464.31z"/>
			<path class="st2" d="M1586.32,1496.38l-174.98-0.42c-3.76-0.01-6.85-3.83-7.03-8.58c0-0.16-0.01-0.31-0.01-0.46l0.04-23.42
				c0-0.15,0-0.31,0.01-0.46c0.2-4.75,3.3-8.55,7.06-8.54l153.49,0.36C1567.34,1467.07,1573.02,1483.97,1586.32,1496.38z"/>
			<g>
				
					<rect x="1684.41" y="1474.07" transform="matrix(2.370747e-03 -1 1 2.370747e-03 225.1811 3177.5623)" class="st2" width="41.47" height="3.71"/>
				
					<rect x="1671.84" y="1474.04" transform="matrix(2.370747e-03 -1 1 2.370747e-03 212.6751 3164.967)" class="st2" width="41.47" height="3.71"/>
				
					<rect x="1656.77" y="1474" transform="matrix(2.640148e-03 -1 1 2.640148e-03 197.2274 3149.4646)" class="st2" width="41.47" height="3.71"/>
				
					<rect x="1633.68" y="1473.95" transform="matrix(2.343807e-03 -1 1 2.343807e-03 174.7365 3126.7524)" class="st2" width="41.47" height="3.71"/>
				
					<rect x="1609.25" y="1473.89" transform="matrix(2.370747e-03 -1 1 2.370747e-03 150.3843 3102.2314)" class="st2" width="41.47" height="3.71"/>
				
					<rect x="1571.81" y="1473.8" transform="matrix(2.370747e-03 -1 1 2.370747e-03 113.1195 3064.7004)" class="st2" width="41.47" height="3.71"/>
				
					<rect x="1536.75" y="1473.72" transform="matrix(2.370108e-03 -1 1 2.370108e-03 78.2295 3029.5615)" class="st2" width="41.47" height="3.71"/>
				
					<rect x="1505.45" y="1473.64" transform="matrix(2.613208e-03 -1 1 2.613208e-03 46.7041 2997.8237)" class="st2" width="41.47" height="3.71"/>
				
					<rect x="1696.37" y="1474.1" transform="matrix(2.370108e-03 -1 1 2.370108e-03 237.0856 3189.5525)" class="st2" width="41.47" height="3.71"/>
				
					<rect x="1704.27" y="1474.11" transform="matrix(2.101345e-03 -1 1 2.101345e-03 245.4126 3197.8701)" class="st2" width="41.47" height="3.71"/>
				
					<rect x="1711.9" y="1474.13" transform="matrix(2.370747e-03 -1 1 2.370747e-03 252.5428 3205.1196)" class="st2" width="41.47" height="3.71"/>
				<path class="st2" d="M1736.56,1455.26l-0.08,41.47l2.32,0.01c0.48,0,0.94-0.05,1.39-0.14l0.08-41.18
					c-0.45-0.1-0.92-0.15-1.39-0.15L1736.56,1455.26z"/>
				<path class="st2" d="M1741.71,1455.88l-0.07,40.26c1.52-0.67,2.81-1.85,3.71-3.37l0.06-33.5
					C1744.52,1457.75,1743.23,1456.55,1741.71,1455.88z"/>
			</g>
		</g>
		<g>
			<path class="st1" d="M1711.92,1422.75l-0.04,23.42c0,1.87-0.5,3.6-1.36,5.04c-0.9,1.51-2.2,2.7-3.71,3.37
				c-0.46,0.21-0.95,0.36-1.45,0.46c-0.45,0.09-0.92,0.14-1.39,0.14l-326.61-0.78c-4.21-0.01-7.67-3.83-7.88-8.58
				c0-0.16-0.01-0.31-0.01-0.46l0.04-23.42c0-0.15,0-0.31,0.01-0.46c0.22-4.75,3.7-8.55,7.91-8.54l326.61,0.78
				c0.21,0,0.42,0.01,0.62,0.03c0.09,0,0.18,0.01,0.27,0.03c0.1,0.01,0.2,0.03,0.29,0.04c0.07,0.01,0.14,0.03,0.21,0.04
				c0.5,0.1,0.98,0.26,1.44,0.47c0.07,0.03,0.14,0.06,0.21,0.1c0.07,0.03,0.14,0.06,0.2,0.1c0.13,0.07,0.27,0.15,0.4,0.22
				c0.07,0.05,0.15,0.1,0.23,0.15c0.07,0.04,0.13,0.08,0.2,0.14c0.13,0.08,0.25,0.17,0.37,0.27c0.14,0.11,0.27,0.23,0.41,0.35
				c0.1,0.09,0.21,0.19,0.31,0.29c0,0,0.01,0.01,0.02,0.02c0.07,0.07,0.13,0.14,0.2,0.21c0.2,0.21,0.39,0.44,0.57,0.67
				c0.06,0.07,0.11,0.14,0.16,0.21c0.05,0.07,0.1,0.14,0.15,0.22c0.1,0.15,0.2,0.3,0.29,0.46
				C1711.43,1419.16,1711.92,1420.89,1711.92,1422.75z"/>
			<path class="st2" d="M1551.48,1454.82l-174.98-0.42c-3.76-0.01-6.85-3.83-7.03-8.58c0-0.16-0.01-0.31-0.01-0.46l0.04-23.42
				c0-0.15,0-0.31,0.01-0.46c0.2-4.75,3.3-8.55,7.06-8.55l153.48,0.37c0.07,0.34,0.14,0.68,0.21,1.02
				C1532.82,1426.44,1538.54,1442.75,1551.48,1454.82z"/>
			<g>
				
					<rect x="1649.56" y="1432.51" transform="matrix(2.343175e-03 -1 1 2.343175e-03 232.0218 3101.2976)" class="st2" width="41.47" height="3.71"/>
				
					<rect x="1637" y="1432.48" transform="matrix(2.343807e-03 -1 1 2.343807e-03 219.5148 3088.7017)" class="st2" width="41.47" height="3.71"/>
				
					<rect x="1621.93" y="1432.44" transform="matrix(2.370747e-03 -1 1 2.370747e-03 204.4737 3073.5591)" class="st2" width="41.47" height="3.71"/>
				
					<rect x="1598.83" y="1432.39" transform="matrix(2.370747e-03 -1 1 2.370747e-03 181.4865 3050.4084)" class="st2" width="41.47" height="3.71"/>
				
					<rect x="1574.41" y="1432.33" transform="matrix(2.100779e-03 -1 1 2.100779e-03 157.6087 3026.3157)" class="st2" width="41.47" height="3.71"/>
				
					<rect x="1536.97" y="1432.24" transform="matrix(2.613912e-03 -1 1 2.613912e-03 119.537 2988.0466)" class="st2" width="41.47" height="3.71"/>
				
					<rect x="1501.91" y="1432.16" transform="matrix(2.370747e-03 -1 1 2.370747e-03 85.0241 2953.2561)" class="st2" width="41.47" height="3.71"/>
				
					<rect x="1470.6" y="1432.08" transform="matrix(2.100779e-03 -1 1 2.100779e-03 54.2696 2922.2661)" class="st2" width="41.47" height="3.71"/>
				
					<rect x="1661.52" y="1432.54" transform="matrix(2.343807e-03 -1 1 2.343807e-03 243.9248 3113.2864)" class="st2" width="41.47" height="3.71"/>
				
					<rect x="1669.42" y="1432.56" transform="matrix(2.371386e-03 -1 1 2.371386e-03 251.7428 3121.1667)" class="st2" width="41.47" height="3.71"/>
				
					<rect x="1677.05" y="1432.58" transform="matrix(2.370747e-03 -1 1 2.370747e-03 259.3374 3128.8162)" class="st2" width="41.47" height="3.71"/>
				<path class="st2" d="M1701.71,1413.7l-0.08,41.47l2.32,0c0.48,0,0.94-0.05,1.39-0.14l0.08-41.18c-0.45-0.1-0.92-0.15-1.39-0.15
					L1701.71,1413.7z"/>
				<path class="st2" d="M1706.87,1414.32l-0.07,40.25c1.52-0.67,2.81-1.85,3.71-3.37l0.06-33.5
					C1709.68,1416.19,1708.38,1415,1706.87,1414.32z"/>
			</g>
		</g>
		<path class="st1" d="M1728.87,1382.34l-0.04,23.42c0,1.87-0.5,3.6-1.36,5.04c-0.9,1.51-2.2,2.71-3.71,3.37
			c-0.46,0.21-0.95,0.36-1.45,0.46c-0.46,0.09-0.92,0.14-1.39,0.14L1394.3,1414c-1.31,0-2.55-0.38-3.64-1.03
			c-2.31-1.39-3.96-4.05-4.21-7.15c-0.01-0.13-0.02-0.27-0.03-0.4c0-0.15-0.01-0.31-0.01-0.46l0.04-23.42c0-0.15,0-0.31,0.01-0.46
			c0.22-4.75,3.7-8.55,7.91-8.54l326.61,0.77c0.48,0,0.94,0.05,1.39,0.15c0.5,0.1,0.98,0.26,1.45,0.47c1.51,0.67,2.8,1.87,3.7,3.39
			C1728.37,1378.75,1728.87,1380.48,1728.87,1382.34z"/>
		<path class="st2" d="M1568.43,1414.41l-174.98-0.42c-1.17,0-2.28-0.38-3.25-1.03c-2.06-1.39-3.53-4.04-3.76-7.14
			c-0.01-0.13-0.02-0.27-0.03-0.4c0-0.15-0.01-0.31-0.01-0.46l0.04-23.42c0-0.15,0-0.31,0.01-0.46c0.2-4.75,3.3-8.55,7.06-8.54
			l153.49,0.36c2.36,11.88,7.8,28.19,20.34,40.5C1567.71,1413.73,1568.06,1414.07,1568.43,1414.41z"/>
		<path class="st1" d="M1736.76,1340.89l-0.04,23.42c0,1.87-0.5,3.6-1.36,5.04c-0.9,1.51-2.2,2.71-3.71,3.37
			c-0.46,0.21-0.95,0.36-1.45,0.46c-0.46,0.09-0.92,0.14-1.39,0.14l-326.61-0.78c-4.21-0.01-7.67-3.83-7.88-8.58
			c0-0.16-0.01-0.31-0.01-0.46l0.04-23.42c0-0.15,0-0.31,0.01-0.46c0.2-4.4,3.19-7.98,6.97-8.48c0.31-0.04,0.62-0.06,0.94-0.06
			l326.61,0.78c0.48,0,0.94,0.05,1.39,0.15c0.5,0.1,0.98,0.26,1.45,0.47c1.51,0.67,2.81,1.87,3.7,3.39
			C1736.27,1337.29,1736.77,1339.02,1736.76,1340.89z"/>
		<path class="st2" d="M1576.33,1372.96l-174.98-0.42c-3.76-0.01-6.85-3.83-7.03-8.58c0-0.16-0.01-0.31-0.01-0.46l0.04-23.42
			c0-0.15,0-0.31,0.01-0.46c0.18-4.39,2.85-7.98,6.23-8.48c0.27-0.04,0.55-0.06,0.83-0.06l153.49,0.36c0,0.02,0.01,0.05,0.01,0.07
			C1557.36,1343.7,1563.05,1360.56,1576.33,1372.96z"/>
		<path class="st1" d="M1712.83,1299.42l-0.04,23.42c0,1.87-0.5,3.6-1.36,5.04c-0.9,1.51-2.2,2.7-3.71,3.37
			c-0.46,0.21-0.95,0.36-1.45,0.46c-0.15,0.03-0.31,0.06-0.46,0.08c-0.08,0.01-0.17,0.02-0.26,0.03c-0.08,0.01-0.17,0.02-0.26,0.02
			c-0.14,0.01-0.28,0.01-0.42,0.01l-326.61-0.78c-4.21-0.01-7.67-3.83-7.88-8.58c0-0.15-0.01-0.31-0.01-0.46l0.04-23.42
			c0-0.16,0-0.31,0.01-0.46c0-0.13,0.01-0.25,0.02-0.38c0.32-3.82,2.76-6.97,5.94-7.89c0.08-0.03,0.16-0.04,0.24-0.07
			c0.55-0.14,1.12-0.21,1.71-0.21l326.61,0.78c0.24,0,0.48,0.02,0.71,0.04c0.11,0.02,0.21,0.03,0.32,0.04h0
			c0.12,0.02,0.24,0.05,0.37,0.07c0.5,0.1,0.98,0.26,1.45,0.47c1.51,0.67,2.81,1.87,3.7,3.39
			C1712.34,1295.82,1712.83,1297.56,1712.83,1299.42z"/>
		<path class="st2" d="M1552.39,1331.49l-174.98-0.42c-3.76-0.01-6.85-3.83-7.03-8.58c0-0.15-0.01-0.31-0.01-0.46l0.04-23.42
			c0-0.16,0-0.31,0.01-0.46c0-0.13,0.01-0.25,0.02-0.38c0.29-3.91,2.56-7.1,5.49-7.95c0.1-0.04,0.2-0.06,0.3-0.08
			c0.41-0.09,0.82-0.14,1.25-0.14l153.49,0.36c0.02,0.1,0.04,0.19,0.06,0.29c2.46,12.17,8.14,28.86,21.28,41.17
			C1552.34,1331.44,1552.37,1331.47,1552.39,1331.49z"/>
		<path class="st1" d="M1712.22,1258.24l-0.04,23.42c0,1.87-0.5,3.6-1.36,5.04c-0.9,1.52-2.2,2.7-3.72,3.37
			c-0.36,0.16-0.74,0.29-1.13,0.39h-0.01c-0.11,0.03-0.21,0.05-0.31,0.07c-0.45,0.09-0.92,0.14-1.39,0.14l-326.61-0.77
			c-0.34,0-0.69-0.03-1.02-0.08c-0.13-0.01-0.26-0.04-0.39-0.07c-3.55-0.74-6.29-4.22-6.47-8.43c0-0.16-0.01-0.31-0.01-0.46
			l0.04-23.42c0-0.16,0-0.31,0.01-0.46c0.22-4.75,3.7-8.55,7.91-8.54l326.61,0.78c0.21,0,0.42,0.01,0.62,0.03
			c0.09,0.01,0.18,0.02,0.27,0.03c0.1,0.01,0.2,0.03,0.29,0.05c0.07,0.01,0.14,0.03,0.21,0.04c0.5,0.1,0.98,0.26,1.45,0.47
			c0.07,0.03,0.13,0.06,0.21,0.1c0.07,0.03,0.13,0.06,0.2,0.1c0.13,0.07,0.27,0.15,0.4,0.22c0.14,0.09,0.29,0.18,0.43,0.28
			c0.13,0.09,0.25,0.18,0.37,0.27c0.14,0.11,0.27,0.23,0.4,0.35c0.11,0.09,0.21,0.18,0.31,0.29c0,0,0.01,0.01,0.02,0.02
			c0.07,0.06,0.14,0.14,0.2,0.21c0.2,0.21,0.39,0.44,0.57,0.67c0.06,0.07,0.11,0.14,0.16,0.21c0.05,0.08,0.1,0.14,0.15,0.22
			c0.1,0.15,0.2,0.3,0.29,0.46C1711.73,1254.64,1712.22,1256.38,1712.22,1258.24z"/>
		<path class="st2" d="M1551.78,1290.31l-174.98-0.42c-0.14,0-0.28-0.01-0.42-0.02c-0.15-0.01-0.3-0.03-0.45-0.06
			c-3.36-0.54-6-4.12-6.17-8.51c0-0.16-0.01-0.31-0.01-0.46l0.04-23.42c0-0.16,0-0.31,0.01-0.46c0.2-4.75,3.3-8.55,7.06-8.55
			l153.48,0.36c0.07,0.34,0.14,0.68,0.21,1.02c2.52,12.02,8.17,28.17,20.89,40.21C1551.57,1290.11,1551.67,1290.21,1551.78,1290.31z
			"/>
		<path class="st1" d="M1729.17,1217.83l-0.04,23.42c0,1.87-0.5,3.6-1.36,5.04c-0.9,1.51-2.2,2.7-3.71,3.37
			c-0.46,0.21-0.95,0.36-1.45,0.46c-0.45,0.09-0.92,0.14-1.39,0.14l-326.61-0.78c-1.31,0-2.55-0.38-3.64-1.03
			c-2.31-1.39-3.95-4.05-4.21-7.15c-0.01-0.13-0.02-0.27-0.03-0.4c0-0.15-0.01-0.31-0.01-0.46l0.04-23.42
			c0-0.15,0.01-0.31,0.01-0.46c0.22-4.75,3.7-8.55,7.91-8.54l326.61,0.77c0.48,0,0.94,0.05,1.39,0.15c0.5,0.1,0.98,0.26,1.45,0.47
			c1.51,0.67,2.81,1.87,3.7,3.39C1728.67,1214.23,1729.17,1215.97,1729.17,1217.83z"/>
		<path class="st2" d="M1568.72,1249.9l-174.98-0.41c-1.17,0-2.27-0.38-3.25-1.03c-2.06-1.39-3.53-4.04-3.76-7.14
			c-0.01-0.13-0.02-0.27-0.03-0.4c0-0.15-0.01-0.31-0.01-0.46l0.04-23.42c0-0.15,0.01-0.31,0.01-0.46c0.2-4.75,3.31-8.55,7.06-8.55
			l153.49,0.36c2.36,11.88,7.8,28.2,20.34,40.5C1568.01,1249.22,1568.36,1249.56,1568.72,1249.9z"/>
		<path class="st1" d="M1755.93,1176.42l-0.04,23.42c0,1.87-0.5,3.6-1.36,5.04c-0.9,1.51-2.2,2.7-3.71,3.37
			c-0.46,0.21-0.95,0.36-1.45,0.46c-0.45,0.09-0.92,0.14-1.39,0.14l-326.61-0.78c-4.21-0.01-7.67-3.83-7.88-8.58
			c0-0.15-0.01-0.31-0.01-0.46l0.04-23.42c0-0.15,0-0.31,0.01-0.46c0.2-4.39,3.19-7.98,6.97-8.48c0.31-0.04,0.62-0.06,0.93-0.06
			l326.61,0.78c0.48,0,0.94,0.05,1.39,0.15c0.5,0.1,0.98,0.26,1.44,0.47c1.51,0.67,2.81,1.87,3.7,3.39
			C1755.44,1172.82,1755.93,1174.56,1755.93,1176.42z"/>
		<path class="st2" d="M1595.49,1208.49l-174.98-0.42c-3.76-0.01-6.85-3.83-7.03-8.58c0-0.15-0.01-0.31-0.01-0.46l0.04-23.42
			c0-0.15,0-0.31,0.01-0.46c0.18-4.39,2.85-7.98,6.23-8.48c0.27-0.04,0.55-0.06,0.83-0.06l153.49,0.36c0,0.02,0.01,0.04,0.01,0.07
			C1576.53,1179.24,1582.21,1196.1,1595.49,1208.49z"/>
		<path class="st1" d="M1713.13,1134.91l-0.04,23.42c0,1.87-0.5,3.6-1.36,5.04c-0.9,1.51-2.2,2.7-3.71,3.37
			c-0.46,0.21-0.95,0.36-1.45,0.46c-0.15,0.03-0.31,0.06-0.46,0.08c-0.12,0.02-0.25,0.03-0.37,0.04c-0.06,0-0.12,0.01-0.18,0.02
			c-0.13,0-0.25,0.01-0.38,0.01l-326.61-0.78c-4.21-0.01-7.67-3.83-7.88-8.58c0-0.15-0.01-0.31-0.01-0.46l0.04-23.42
			c0-0.15,0.01-0.31,0.01-0.46c0.22-4.75,3.7-8.55,7.91-8.54l326.61,0.78c0.14,0,0.28,0,0.42,0.02c0.33,0.02,0.66,0.07,0.97,0.13
			c0.5,0.1,0.98,0.26,1.45,0.47c0.24,0.11,0.47,0.22,0.68,0.35c0.14,0.08,0.28,0.16,0.41,0.25c0.01,0,0.03,0.01,0.04,0.03
			c0.13,0.09,0.27,0.19,0.4,0.29c0.03,0.01,0.05,0.03,0.07,0.05c0.12,0.09,0.24,0.19,0.35,0.29c0.28,0.24,0.54,0.5,0.79,0.79
			c0.08,0.08,0.15,0.17,0.22,0.26c0.01,0.01,0.03,0.03,0.04,0.05c0.05,0.05,0.09,0.11,0.14,0.17c0.01,0.01,0.02,0.02,0.03,0.04
			c0.08,0.1,0.16,0.21,0.23,0.33c0.11,0.16,0.21,0.32,0.31,0.49C1712.64,1131.31,1713.13,1133.04,1713.13,1134.91z"/>
		<path class="st2" d="M1552.69,1166.98l-174.98-0.42c-3.76-0.01-6.85-3.83-7.03-8.58c0-0.15-0.01-0.31-0.01-0.46l0.04-23.42
			c0-0.15,0.01-0.31,0.01-0.46c0.2-4.75,3.31-8.55,7.06-8.55l153.49,0.37c0.06,0.31,0.13,0.63,0.2,0.96
			c2.52,12.11,8.23,28.42,21.14,40.5C1552.64,1166.93,1552.67,1166.96,1552.69,1166.98z"/>
		<path class="st1" d="M1737.21,1094.45l-0.04,23.42c0,1.87-0.5,3.6-1.36,5.04c-0.9,1.51-2.2,2.7-3.71,3.37
			c-0.46,0.21-0.95,0.36-1.45,0.46c-0.46,0.09-0.92,0.14-1.39,0.14l-326.61-0.78c-1.27,0-2.47-0.35-3.53-0.97
			c-2.38-1.37-4.08-4.08-4.33-7.25c-0.01-0.12-0.02-0.24-0.02-0.37c0-0.15-0.01-0.31-0.01-0.46l0.04-23.42c0-0.16,0-0.31,0.01-0.46
			c0.2-4.4,3.19-7.98,6.97-8.48c0.31-0.04,0.62-0.06,0.94-0.06l326.61,0.78c0.48,0,0.94,0.05,1.39,0.15c0.5,0.1,0.98,0.26,1.45,0.47
			c1.51,0.67,2.8,1.87,3.7,3.39C1736.72,1090.85,1737.22,1092.59,1737.21,1094.45z"/>
		<path class="st2" d="M1576.77,1126.52l-174.98-0.42c-1.13,0-2.2-0.35-3.15-0.97c-2.12-1.37-3.64-4.08-3.86-7.24
			c-0.01-0.12-0.02-0.24-0.02-0.37c0-0.15-0.01-0.31-0.01-0.46l0.04-23.42c0-0.16,0-0.31,0.01-0.46c0.18-4.39,2.85-7.98,6.23-8.48
			c0.27-0.04,0.55-0.06,0.83-0.06l153.49,0.36c0,0.02,0.01,0.04,0.01,0.07c2.37,11.9,7.83,28.21,20.4,40.5
			C1576.1,1125.88,1576.43,1126.2,1576.77,1126.52z"/>
		<path class="st1" d="M1713.28,1052.99l-0.04,23.42c0,1.87-0.5,3.6-1.36,5.04c-0.9,1.52-2.2,2.71-3.71,3.37
			c-0.46,0.21-0.95,0.36-1.45,0.46c-0.15,0.03-0.31,0.06-0.46,0.08c-0.08,0.01-0.17,0.02-0.26,0.03c-0.08,0.01-0.17,0.01-0.26,0.02
			c-0.14,0.01-0.28,0.01-0.42,0.01l-326.61-0.78c-4.21-0.01-7.67-3.83-7.88-8.58c0-0.16-0.01-0.31-0.01-0.46l0.04-23.42
			c0-0.15,0-0.31,0.01-0.46c0.22-4.75,3.7-8.55,7.91-8.54l326.61,0.78c0.48,0,0.94,0.05,1.39,0.15c0.5,0.1,0.98,0.26,1.45,0.47
			c1.51,0.67,2.81,1.87,3.7,3.39C1712.79,1049.39,1713.28,1051.12,1713.28,1052.99z"/>
		<path class="st2" d="M1552.84,1085.05l-174.98-0.41c-3.76-0.01-6.85-3.83-7.03-8.58c0-0.16-0.01-0.31-0.01-0.46l0.04-23.42
			c0-0.15,0-0.31,0.01-0.46c0.2-4.75,3.3-8.55,7.06-8.54l153.49,0.36c2.42,12.2,8.09,29.05,21.34,41.46
			C1552.79,1085.01,1552.81,1085.03,1552.84,1085.05z"/>
		<g>
			
				<rect x="1666.51" y="1392.1" transform="matrix(2.371322e-03 -1 1 2.371322e-03 289.2937 3077.8926)" class="st2" width="41.47" height="3.71"/>
			
				<rect x="1653.95" y="1392.07" transform="matrix(2.101345e-03 -1 1 2.101345e-03 277.2401 3065.6743)" class="st2" width="41.47" height="3.71"/>
			
				<rect x="1638.88" y="1392.03" transform="matrix(2.128285e-03 -1 1 2.128285e-03 262.1942 3050.5334)" class="st2" width="41.47" height="3.71"/>
			
				<rect x="1615.78" y="1391.98" transform="matrix(2.370683e-03 -1 1 2.370683e-03 238.8061 3027.043)" class="st2" width="41.47" height="3.71"/>
			
				<rect x="1591.36" y="1391.92" transform="matrix(2.370108e-03 -1 1 2.370108e-03 214.4992 3002.563)" class="st2" width="41.47" height="3.71"/>
			
				<rect x="1553.91" y="1391.83" transform="matrix(2.371322e-03 -1 1 2.371322e-03 177.2325 2965.0303)" class="st2" width="41.47" height="3.71"/>
			
				<rect x="1518.86" y="1391.75" transform="matrix(2.101345e-03 -1 1 2.101345e-03 142.7566 2930.2673)" class="st2" width="41.47" height="3.71"/>
			
				<rect x="1487.55" y="1391.68" transform="matrix(2.370747e-03 -1 1 2.370747e-03 111.1877 2898.5132)" class="st2" width="41.47" height="3.71"/>
			
				<rect x="1678.47" y="1392.13" transform="matrix(2.370747e-03 -1 1 2.370747e-03 301.1989 3089.8816)" class="st2" width="41.47" height="3.71"/>
			
				<rect x="1686.37" y="1392.15" transform="matrix(2.101345e-03 -1 1 2.101345e-03 309.522 3098.179)" class="st2" width="41.47" height="3.71"/>
			
				<rect x="1694" y="1392.16" transform="matrix(2.370747e-03 -1 1 2.370747e-03 316.6572 3105.4502)" class="st2" width="41.47" height="3.71"/>
			<path class="st2" d="M1718.66,1373.29l-0.07,41.47l2.32,0.01c0.48,0,0.94-0.05,1.39-0.14l0.08-41.18
				c-0.45-0.1-0.92-0.15-1.39-0.15L1718.66,1373.29z"/>
			<path class="st2" d="M1723.82,1373.91l-0.07,40.26c1.52-0.67,2.81-1.85,3.71-3.37l0.06-33.5
				C1726.62,1375.78,1725.33,1374.58,1723.82,1373.91z"/>
			
				<rect x="1561.81" y="1350.38" transform="matrix(2.370747e-03 -1 1 2.370747e-03 226.5699 2931.5715)" class="st2" width="41.47" height="3.71"/>
			
				<rect x="1526.76" y="1350.29" transform="matrix(2.343807e-03 -1 1 2.343807e-03 191.7209 2896.4683)" class="st2" width="41.47" height="3.71"/>
			
				<rect x="1495.45" y="1350.22" transform="matrix(2.370108e-03 -1 1 2.370108e-03 160.524 2865.0554)" class="st2" width="41.47" height="3.71"/>
			<path class="st2" d="M1708.92,1373.27l0.08-41.47l-3.26-0.01c0.17-0.02,0.35-0.04,0.52-0.08l0.08-41.18
				c-0.23-0.05-0.46-0.08-0.69-0.11l0.07-40.19l1.45,0l-0.07,39.84c1.52-0.67,2.81-1.85,3.71-3.37l0.06-33.5
				c-0.74-1.25-1.76-2.27-2.94-2.97l1.3,0l0.08-41.47l-3.71-0.01l-0.07,40.56c-0.39-0.07-0.78-0.11-1.19-0.11l-2.32-0.01
				l-0.08,41.47l0.69,0l-0.08,41.18l2.32,0.01c0.14,0,0.28-0.01,0.42-0.02l-0.08,41.43L1708.92,1373.27z"/>
			
				<rect x="1694.27" y="1350.69" transform="matrix(2.370108e-03 -1 1 2.370108e-03 358.3997 3064.344)" class="st2" width="41.47" height="3.71"/>
			
				<rect x="1701.9" y="1350.71" transform="matrix(2.613138e-03 -1 1 2.613138e-03 365.5757 3071.6626)" class="st2" width="41.47" height="3.71"/>
			<path class="st2" d="M1726.56,1331.84l-0.08,41.47l2.32,0.01c0.48,0,0.94-0.05,1.39-0.14l0.07-41.18
				c-0.45-0.1-0.92-0.15-1.39-0.15L1726.56,1331.84z"/>
			<path class="st2" d="M1731.72,1332.46l-0.07,40.26c1.52-0.67,2.81-1.85,3.71-3.37l0.06-33.5
				C1734.52,1334.33,1733.23,1333.13,1731.72,1332.46z"/>
			<polygon class="st2" points="1673.03,1331.78 1673.1,1290.3 1672.42,1290.3 1672.49,1249.12 1668.78,1249.11 1668.7,1290.59 
				1669.39,1290.59 1669.31,1331.7 1665.69,1331.69 1665.62,1373.17 1669.33,1373.17 1669.41,1331.77 			"/>
			<polygon class="st2" points="1645.47,1290.24 1644.78,1290.23 1644.86,1249.06 1641.15,1249.05 1641.07,1290.52 1641.76,1290.52 
				1641.68,1331.7 1642.6,1331.7 1642.52,1373.11 1646.23,1373.12 1646.31,1331.65 1645.39,1331.64 			"/>
			<path class="st2" d="M1707.78,1290.99l-0.07,40.26c1.52-0.67,2.81-1.86,3.71-3.37l0.06-33.5
				C1710.59,1292.86,1709.29,1291.66,1707.78,1290.99z"/>
			<polygon class="st2" points="1621.76,1249 1618.05,1248.99 1617.97,1290.47 1618.66,1290.47 1618.59,1331.58 1618.17,1331.58 
				1618.1,1373.05 1621.81,1373.06 1621.89,1331.65 1622.3,1331.66 1622.37,1290.18 1621.69,1290.18 			"/>
			<polygon class="st2" points="1597.34,1248.95 1593.63,1248.94 1593.55,1290.41 1594.24,1290.41 1594.16,1331.59 1597.87,1331.6 
				1597.95,1290.12 1597.26,1290.12 			"/>
			<polygon class="st2" points="1559.9,1248.86 1556.18,1248.85 1556.11,1290.32 1556.79,1290.32 1556.72,1331.5 1560.43,1331.51 
				1560.51,1290.03 1559.82,1290.03 			"/>
			<polygon class="st2" points="1524.84,1248.77 1521.13,1248.76 1521.05,1290.24 1521.74,1290.24 1521.66,1331.42 1525.38,1331.42 
				1525.45,1289.95 1524.76,1289.95 			"/>
			<polygon class="st2" points="1493.53,1248.7 1489.82,1248.69 1489.75,1290.16 1490.43,1290.16 1490.36,1331.34 1494.07,1331.35 
				1494.15,1289.88 1493.46,1289.88 			"/>
			<polygon class="st2" points="1684.45,1249.15 1680.74,1249.14 1680.66,1290.62 1681.35,1290.62 1681.28,1331.73 1680.76,1331.73 
				1680.69,1373.2 1684.4,1373.21 1684.47,1331.8 1684.99,1331.8 1685.06,1290.33 1684.38,1290.33 			"/>
			<polygon class="st2" points="1692.35,1249.17 1689.37,1249.16 1689.44,1208.71 1685.73,1208.7 1685.65,1250.18 1688.64,1250.18 
				1688.57,1290.63 1689.25,1290.64 1689.18,1331.81 1692.89,1331.82 1692.96,1290.35 1692.28,1290.35 			"/>
			
				<rect x="1654.24" y="1227.56" transform="matrix(2.370747e-03 -1 1 2.370747e-03 441.5977 2901.4768)" class="st2" width="41.47" height="3.71"/>
			<polygon class="st2" points="1658.02,1249.09 1656.21,1249.08 1656.14,1290.56 1656.82,1290.56 1656.75,1331.74 1660.46,1331.75 
				1660.54,1290.27 1659.85,1290.27 1659.92,1250.12 1661.73,1250.12 1661.81,1208.65 1658.09,1208.64 			"/>
			
				<rect x="1616.08" y="1227.47" transform="matrix(2.640148e-03 -1 1 2.640148e-03 403.1743 2862.8901)" class="st2" width="41.47" height="3.71"/>
			
				<rect x="1591.66" y="1227.41" transform="matrix(2.370108e-03 -1 1 2.370108e-03 379.3079 2838.7422)" class="st2" width="41.47" height="3.71"/>
			
				<rect x="1554.21" y="1227.32" transform="matrix(2.343744e-03 -1 1 2.343744e-03 342.0846 2801.2432)" class="st2" width="41.47" height="3.71"/>
			
				<rect x="1519.16" y="1227.24" transform="matrix(2.128285e-03 -1 1 2.128285e-03 307.5243 2766.3689)" class="st2" width="41.47" height="3.71"/>
			
				<rect x="1487.85" y="1227.16" transform="matrix(2.370108e-03 -1 1 2.370108e-03 275.997 2734.6929)" class="st2" width="41.47" height="3.71"/>
			<polygon class="st2" points="1697.61,1249.18 1696.27,1249.18 1696.2,1290.65 1696.88,1290.65 1696.81,1331.77 1693.33,1331.76 
				1693.25,1373.23 1696.96,1373.24 1697.04,1331.83 1700.52,1331.84 1700.59,1290.37 1699.91,1290.37 1699.98,1250.21 
				1701.32,1250.21 1701.4,1208.74 1697.69,1208.73 			"/>
			
				<rect x="1694.3" y="1227.65" transform="matrix(2.370747e-03 -1 1 2.370747e-03 481.4653 2941.6296)" class="st2" width="41.47" height="3.71"/>
			<path class="st2" d="M1722.6,1250.12l0.08-41.18c-0.46-0.1-0.92-0.15-1.39-0.15l-2.32-0.01l-0.08,41.47l2.32,0.01
				C1721.68,1250.26,1722.14,1250.21,1722.6,1250.12z"/>
			<path class="st2" d="M1727.76,1246.29l0.06-33.5c-0.9-1.52-2.19-2.71-3.7-3.39l-0.07,40.26
				C1725.56,1248.99,1726.86,1247.8,1727.76,1246.29z"/>
			
				<rect x="1693.58" y="1186.18" transform="matrix(2.370683e-03 -1 1 2.370683e-03 522.2178 2899.5256)" class="st2" width="41.47" height="3.71"/>
			
				<rect x="1642.85" y="1186.06" transform="matrix(2.370747e-03 -1 1 2.370747e-03 471.7293 2848.6758)" class="st2" width="41.47" height="3.71"/>
			
				<rect x="1618.42" y="1186" transform="matrix(2.370108e-03 -1 1 2.370108e-03 447.4228 2824.1953)" class="st2" width="41.47" height="3.71"/>
			
				<rect x="1580.98" y="1185.91" transform="matrix(2.371322e-03 -1 1 2.371322e-03 410.1561 2786.6631)" class="st2" width="41.47" height="3.71"/>
			
				<rect x="1545.92" y="1185.83" transform="matrix(2.370747e-03 -1 1 2.370747e-03 375.266 2751.5239)" class="st2" width="41.47" height="3.71"/>
			
				<rect x="1514.62" y="1185.75" transform="matrix(2.101345e-03 -1 1 2.101345e-03 344.5236 2720.4666)" class="st2" width="41.47" height="3.71"/>
			
				<rect x="1705.54" y="1186.21" transform="matrix(2.370108e-03 -1 1 2.370108e-03 534.1231 2911.5156)" class="st2" width="41.47" height="3.71"/>
			
				<rect x="1713.44" y="1186.23" transform="matrix(2.370747e-03 -1 1 2.370747e-03 541.9863 2919.4353)" class="st2" width="41.47" height="3.71"/>
			
				<rect x="1721.07" y="1186.24" transform="matrix(2.344438e-03 -1 1 2.344438e-03 549.626 2927.1143)" class="st2" width="41.47" height="3.71"/>
			<path class="st2" d="M1745.73,1167.37l-0.07,41.47l2.32,0.01c0.48,0,0.94-0.05,1.39-0.14l0.08-41.18
				c-0.45-0.09-0.92-0.15-1.39-0.15L1745.73,1167.37z"/>
			<path class="st2" d="M1750.88,1167.99l-0.07,40.26c1.52-0.67,2.81-1.86,3.71-3.37l0.06-33.5
				C1753.69,1169.86,1752.4,1168.66,1750.88,1167.99z"/>
			<polygon class="st2" points="1669.61,1167.26 1673.33,1167.27 1673.4,1125.79 1669.78,1125.78 1669.85,1085.33 1673.47,1085.34 
				1673.55,1043.87 1669.84,1043.86 1669.76,1085.27 1666.14,1085.26 1666.07,1126.73 1669.69,1126.74 			"/>
			
				<rect x="1638.21" y="1144.64" transform="matrix(2.640148e-03 -1 1 2.640148e-03 508.0726 2802.4036)" class="st2" width="41.47" height="3.71"/>
			
				<rect x="1575.62" y="1144.49" transform="matrix(2.370683e-03 -1 1 2.370683e-03 446.2278 2739.9783)" class="st2" width="41.47" height="3.71"/>
			
				<rect x="1538.18" y="1144.4" transform="matrix(2.343807e-03 -1 1 2.343807e-03 409.0049 2702.4783)" class="st2" width="41.47" height="3.71"/>
			
				<rect x="1503.12" y="1144.32" transform="matrix(2.370747e-03 -1 1 2.370747e-03 374.0726 2667.3071)" class="st2" width="41.47" height="3.71"/>
			
				<rect x="1471.81" y="1144.24" transform="matrix(2.343175e-03 -1 1 2.343175e-03 342.9582 2635.9604)" class="st2" width="41.47" height="3.71"/>
			<polygon class="st2" points="1681.58,1167.28 1684.86,1167.29 1684.79,1208.7 1688.5,1208.71 1688.57,1167.24 1685.29,1167.23 
				1685.36,1125.82 1684.85,1125.82 1684.92,1085.37 1685.44,1085.37 1685.51,1043.9 1681.8,1043.89 1681.72,1085.29 
				1681.21,1085.29 1681.13,1126.77 1681.65,1126.77 			"/>
			
				<rect x="1670.63" y="1144.72" transform="matrix(1.834899e-03 -1 1 1.834899e-03 541.6978 2835.8347)" class="st2" width="41.47" height="3.71"/>
			<path class="st2" d="M1708.72,1126.83l0.65,0l0.08-41.47l-3.26-0.01c0.17-0.02,0.35-0.04,0.52-0.08l0.08-41.18
				c-0.45-0.1-0.92-0.15-1.39-0.15l-2.32-0.01l-0.08,41.47l2.32,0c0.14,0,0.28-0.01,0.42-0.02l-0.07,40.5
				c-0.14-0.01-0.28-0.02-0.42-0.02l-2.32,0l-0.08,41.41l-2.03,0l0.08-41.41l-3.48-0.01l0.07-40.45l3.48,0.01l0.08-41.47l-3.71-0.01
				l-0.08,41.41l-3.48-0.01l-0.08,41.47l3.48,0.01l-0.07,40.52l2.82,0.01l-0.08,41.41l3.71,0.01l0.08-41.41l1.52,0
				c0.48,0,0.94-0.05,1.39-0.14l0.07-40.37l1.45,0l-0.07,39.91c1.52-0.66,2.81-1.85,3.71-3.37l0.06-33.5
				C1711.02,1128.57,1709.95,1127.53,1708.72,1126.83z"/>
			
				<rect x="1562.26" y="1103.94" transform="matrix(2.101911e-03 -1 1 2.101911e-03 473.8766 2686.4673)" class="st2" width="41.47" height="3.71"/>
			
				<rect x="1527.2" y="1103.86" transform="matrix(2.370747e-03 -1 1 2.370747e-03 438.5609 2651.0295)" class="st2" width="41.47" height="3.71"/>
			
				<rect x="1495.9" y="1103.78" transform="matrix(2.370108e-03 -1 1 2.370108e-03 407.4061 2619.6521)" class="st2" width="41.47" height="3.71"/>
			
				<rect x="1694.72" y="1104.26" transform="matrix(2.343807e-03 -1 1 2.343807e-03 605.3273 2818.9705)" class="st2" width="41.47" height="3.71"/>
			
				<rect x="1702.35" y="1104.27" transform="matrix(2.370747e-03 -1 1 2.370747e-03 612.8746 2826.5886)" class="st2" width="41.47" height="3.71"/>
			<path class="st2" d="M1727.01,1085.4l-0.08,41.47l2.32,0c0.48,0,0.94-0.05,1.39-0.14l0.07-41.18c-0.45-0.1-0.92-0.15-1.39-0.15
				L1727.01,1085.4z"/>
			<path class="st2" d="M1735.81,1122.91l0.06-33.5c-0.9-1.52-2.19-2.71-3.7-3.39l-0.07,40.26
				C1733.61,1125.61,1734.91,1124.42,1735.81,1122.91z"/>
			
				<rect x="1638.35" y="1062.71" transform="matrix(2.370683e-03 -1 1 2.370683e-03 590.5923 2721.1323)" class="st2" width="41.47" height="3.71"/>
			<polygon class="st2" points="1645.92,1043.8 1642.21,1043.79 1642.13,1085.27 1643.04,1085.27 1642.97,1125.72 1642.06,1125.72 
				1641.98,1167.19 1645.69,1167.2 1645.77,1126.68 1646.68,1126.68 1646.76,1085.21 1645.84,1085.21 			"/>
			<polygon class="st2" points="1619.03,1085.15 1618.62,1085.14 1618.55,1126.62 1618.96,1126.62 1618.88,1167.14 1622.6,1167.14 
				1622.67,1125.67 1622.26,1125.67 1622.33,1085.22 1622.75,1085.22 1622.82,1043.75 1619.11,1043.74 			"/>
			
				<rect x="1575.77" y="1062.56" transform="matrix(2.370747e-03 -1 1 2.370747e-03 528.3013 2658.3967)" class="st2" width="41.47" height="3.71"/>
			
				<rect x="1538.33" y="1062.48" transform="matrix(2.370747e-03 -1 1 2.370747e-03 491.0371 2620.8657)" class="st2" width="41.47" height="3.71"/>
			
				<rect x="1503.27" y="1062.39" transform="matrix(2.612574e-03 -1 1 2.612574e-03 455.7779 2585.4673)" class="st2" width="41.47" height="3.71"/>
			
				<rect x="1471.96" y="1062.32" transform="matrix(2.100779e-03 -1 1 2.100779e-03 425.3936 2554.6353)" class="st2" width="41.47" height="3.71"/>
			
				<rect x="1670.78" y="1062.79" transform="matrix(2.640148e-03 -1 1 2.640148e-03 622.4116 2753.3486)" class="st2" width="41.47" height="3.71"/>
			<path class="st2" d="M1708.23,1044.56l-0.07,40.26c1.52-0.67,2.81-1.85,3.71-3.37l0.06-33.5
				C1711.04,1046.42,1709.74,1045.23,1708.23,1044.56z"/>
		</g>
	</g>
	<g>
		<path class="st1" d="M1817.05,1155.13l23.06,4.09c1.84,0.33,3.46,1.12,4.72,2.21c1.34,1.15,2.28,2.63,2.68,4.24
			c0.12,0.49,0.19,1,0.2,1.5c0.01,0.46-0.02,0.93-0.1,1.4l-57.29,321.54c-0.74,4.15-5.1,6.89-9.81,6.27
			c-0.15-0.02-0.31-0.04-0.46-0.07l-23.06-4.1c-0.15-0.03-0.3-0.06-0.46-0.09c-4.64-1.04-7.78-5.12-7.05-9.27l57.29-321.54
			c0.04-0.21,0.08-0.41,0.14-0.61c0.02-0.09,0.05-0.17,0.08-0.26c0.03-0.09,0.06-0.19,0.1-0.28c0.02-0.07,0.05-0.13,0.08-0.2
			c0.19-0.47,0.42-0.92,0.71-1.34c0.04-0.06,0.08-0.12,0.13-0.19c0.04-0.06,0.09-0.12,0.13-0.18c0.09-0.12,0.19-0.24,0.29-0.35
			c0.06-0.07,0.12-0.13,0.18-0.2c0.06-0.06,0.11-0.12,0.17-0.17c0.11-0.11,0.22-0.21,0.33-0.32c0.13-0.12,0.27-0.23,0.41-0.34
			c0.11-0.09,0.22-0.17,0.33-0.25c0.01,0,0.01-0.01,0.02-0.01c0.08-0.05,0.16-0.11,0.24-0.16c0.24-0.16,0.5-0.31,0.76-0.45
			c0.08-0.04,0.16-0.08,0.23-0.12c0.08-0.04,0.16-0.07,0.24-0.11c0.17-0.07,0.33-0.14,0.5-0.21
			C1813.42,1154.99,1815.21,1154.8,1817.05,1155.13z"/>
		<path class="st2" d="M1820.87,1318.7l-30.69,172.26c-0.66,3.7-4.96,6.08-9.67,5.44c-0.15-0.02-0.31-0.04-0.46-0.07l-23.06-4.1
			c-0.15-0.03-0.3-0.06-0.46-0.09c-4.64-1.02-7.85-4.73-7.19-8.44l26.92-151.1c0.35-0.01,0.69-0.02,1.04-0.03
			C1789.68,1332.17,1806.74,1329.35,1820.87,1318.7z"/>
		<g>
			
				<rect x="1819.43" y="1177.39" transform="matrix(0.1757 -0.9844 0.9844 0.1757 321.7543 2780.5322)" class="st2" width="3.71" height="41.47"/>
			
				<rect x="1817.22" y="1189.76" transform="matrix(0.1752 -0.9845 0.9845 0.1752 308.5548 2789.321)" class="st2" width="3.71" height="41.47"/>
			
				<rect x="1814.58" y="1204.6" transform="matrix(0.1754 -0.9845 0.9845 0.1754 291.4272 2798.6213)" class="st2" width="3.71" height="41.47"/>
			
				<rect x="1810.53" y="1227.34" transform="matrix(0.1754 -0.9845 0.9845 0.1754 265.7011 2813.3818)" class="st2" width="3.71" height="41.47"/>
			
				<rect x="1806.25" y="1251.38" transform="matrix(0.1752 -0.9845 0.9845 0.1752 238.8362 2829.3325)" class="st2" width="3.71" height="41.47"/>
			
				<rect x="1799.68" y="1288.24" transform="matrix(0.1755 -0.9845 0.9845 0.1755 196.7588 2852.8865)" class="st2" width="3.71" height="41.47"/>
			
				<rect x="1793.53" y="1322.76" transform="matrix(0.1752 -0.9845 0.9845 0.1752 158.0759 2875.6812)" class="st2" width="3.71" height="41.47"/>
			
				<rect x="1788.04" y="1353.58" transform="matrix(0.1757 -0.9844 0.9844 0.1757 122.5034 2894.9241)" class="st2" width="3.71" height="41.47"/>
			
				<rect x="1821.53" y="1165.62" transform="matrix(0.1754 -0.9845 0.9845 0.1754 335.5298 2773.3174)" class="st2" width="3.71" height="41.47"/>
			
				<rect x="1822.91" y="1157.84" transform="matrix(0.1755 -0.9845 0.9845 0.1755 344.2977 2768.2368)" class="st2" width="3.71" height="41.47"/>
			
				<rect x="1824.25" y="1150.33" transform="matrix(0.1754 -0.9845 0.9845 0.1754 352.8298 2763.3914)" class="st2" width="3.71" height="41.47"/>
			<path class="st2" d="M1806.37,1163.61l40.83,7.25l0.41-2.28c0.08-0.47,0.12-0.93,0.1-1.4l-40.55-7.2
				c-0.17,0.43-0.3,0.88-0.39,1.35L1806.37,1163.61z"/>
			<path class="st2" d="M1807.87,1158.64l39.64,7.04c-0.39-1.61-1.34-3.09-2.68-4.24l-32.98-5.86
				C1810.2,1156.2,1808.8,1157.26,1807.87,1158.64z"/>
		</g>
	</g>
	<path class="st3" d="M2595.46,1496.36h-140.35c-7.52-6.38,5.21-20.87,18.5-21.84c5.78-0.44,13.08,0.77,21.42,2.54
		c1.93-25.65,12.96-140.97,54.53-136.34c46.74,5.19,0,50.79-13.21,77.78c-9.79,20-20.11,48.67-24.83,62.2
		c3.79,0.82,7.72,1.63,11.73,2.37c6.2-19.02,29.25-83,58.56-79.28c34.42,4.37,20.58,30.02-3.81,45.25
		c-17.9,11.2-39.87,27.11-50.32,34.8c8.85,1.44,18.08,2.42,27.45,2.2C2579.18,1485.46,2590.92,1492.54,2595.46,1496.36z"/>
	<path class="st3" d="M765.43,1491.7c-5.57-8.76-22.35-31.48-44.69-28.48c-24.35,3.28,26.89,19.33,42.57,28.54
		c-3.48,0.05-6.48-0.23-8.68-1.01c-10.49-3.74-28.44,3.43-34.19,5.95h99.83c-0.69-2.39-2.49-6.29-7.14-9.13
		c-1.64-1-4.93-1.14-9.19-0.82c5.94-7,10.06-29.35-6.47-23.6c-12.07,4.2-12.04,17.86-10.85,25.94c-2.57,0.4-5.17,0.81-7.75,1.18
		c-4.97-25.33-22.55-99.57-58.18-101.55c-36.12-2.01,30.63,76.99,52.86,102.26C770.71,1491.32,767.97,1491.58,765.43,1491.7z"/>
	<g>
		
			<ellipse transform="matrix(0.7071 -0.7071 0.7071 0.7071 -52.7071 1391.7714)" class="st4" cx="1653.66" cy="759.51" rx="143.76" ry="143.76"/>
		
			<ellipse transform="matrix(0.254 -0.9672 0.9672 0.254 484.9491 2159.8892)" class="st1" cx="1642.68" cy="765.56" rx="143.76" ry="143.76"/>
		<g>
			<path class="st2" d="M1643.72,898.01c-46.22,0-91.08-24.47-114.93-67.73c-16.89-30.64-20.84-66.02-11.11-99.63
				c9.72-33.61,31.95-61.42,62.59-78.31c30.64-16.89,66.02-20.84,99.63-11.12c33.61,9.72,61.42,31.95,78.31,62.59
				c34.87,63.25,11.78,143.07-51.47,177.94C1686.74,892.78,1665.08,898.01,1643.72,898.01z M1643.32,643.83
				c-20.52,0-40.82,5.18-59.28,15.36c-28.81,15.88-49.71,42.03-58.86,73.64c-9.14,31.6-5.43,64.88,10.45,93.69
				c22.42,40.67,64.62,63.69,108.07,63.69c20.09,0,40.45-4.92,59.25-15.28c59.48-32.79,81.19-107.85,48.4-167.32
				c-15.88-28.81-42.03-49.71-73.64-58.86C1666.38,645.45,1654.82,643.83,1643.32,643.83z"/>
		</g>
		<g>
			<path class="st2" d="M1677.64,791.64c-1.07-2.64-2.38-4.8-3.94-6.51c-1.56-1.71-3.51-3.03-5.86-3.98
				c-2.35-0.94-5.14-1.57-8.37-1.86c-3.23-0.3-7.03-0.32-11.42-0.08c-7.56,0.37-14.56,0.37-21,0.03c-6.44-0.35-12.25-1.4-17.46-3.17
				s-9.77-4.44-13.71-8.03c-3.94-3.59-7.15-8.46-9.65-14.61c-2.17-5.33-3.2-10.58-3.09-15.74c0.11-5.16,1.26-10.08,3.44-14.77
				c2.19-4.69,5.32-9.05,9.39-13.08c4.07-4.03,9.03-7.56,14.88-10.59l-8.18-20.14l16.21-6.58l8.29,20.42
				c6.11-1.6,12.01-2.21,17.68-1.81c5.67,0.4,10.91,1.78,15.73,4.14c4.81,2.36,9.14,5.7,12.98,10.03c3.84,4.33,7.04,9.63,9.58,15.9
				l-29.28,11.89c-3.06-7.53-7.02-12.48-11.88-14.86c-4.86-2.37-10.09-2.43-15.7-0.15c-3.04,1.23-5.49,2.72-7.34,4.46
				c-1.85,1.74-3.19,3.63-4.01,5.68c-0.82,2.05-1.16,4.22-1.02,6.5c0.14,2.28,0.68,4.58,1.62,6.91c0.94,2.32,2.13,4.29,3.57,5.89
				c1.44,1.61,3.31,2.88,5.62,3.81c2.3,0.93,5.11,1.54,8.42,1.84c3.31,0.3,7.3,0.38,11.96,0.24c7.54-0.21,14.53-0.12,20.94,0.27
				c6.41,0.39,12.23,1.49,17.44,3.28c5.21,1.79,9.79,4.49,13.73,8.08c3.94,3.59,7.14,8.43,9.61,14.52
				c2.24,5.52,3.29,10.87,3.15,16.04c-0.14,5.18-1.32,10.08-3.53,14.7c-2.21,4.63-5.41,8.92-9.58,12.88
				c-4.17,3.96-9.19,7.46-15.04,10.49l7.61,18.73l-16.11,6.54l-7.57-18.64c-5.84,1.71-11.75,2.69-17.75,2.93
				c-6,0.24-11.75-0.58-17.24-2.48c-5.49-1.9-10.55-5.05-15.17-9.46c-4.62-4.41-8.46-10.38-11.52-17.91l29.29-11.89
				c1.81,4.45,3.94,7.92,6.4,10.39c2.46,2.47,5.1,4.18,7.92,5.12c2.82,0.94,5.71,1.23,8.67,0.86c2.96-0.36,5.83-1.11,8.6-2.23
				c3.17-1.29,5.79-2.83,7.86-4.62c2.07-1.79,3.62-3.74,4.65-5.84c1.04-2.1,1.56-4.3,1.56-6.61
				C1679.05,796.27,1678.59,793.96,1677.64,791.64z"/>
		</g>
	</g>
	<g>
		<path class="st5" d="M1785.74,682.14c-6.01-4.25-19.65-13.59-20.36-11.51c-0.51,1.5,0.22,4.04,1.85,6.69
			c-8.25-3.08-16.63-5.1-36.43-1.3c-3.97,0.76-7.56,3.02-9.74,6.41c-2.02,3.14-2.77,7.08,2.28,10.22
			c10.11,6.29,7.18,2.52,21.23,11.67c14.05,9.15,31.25,11.49,41.52,5.07l13.79-2.3l1.71-22.68
			C1801.58,684.41,1793.72,683.47,1785.74,682.14z"/>
		<path class="st5" d="M2147.11,491.89c0,0-32.51,38.57-73.91,22.44c0,0-8.91-21.54-9.03-37.42c-0.01-1.96-0.04-3.85-0.07-5.65
			c-0.22-17.88-0.82-27.92-0.82-27.92s0.01,0,0.04-0.01c1.88-0.79,63.29-26,63.24-23.9C2125.5,467.79,2147.11,491.89,2147.11,491.89
			z"/>
		<path class="st6" d="M2120.39,430.96c-5.92,10.98-26.24,32.45-56.29,40.29c-0.22-17.88-0.82-27.92-0.82-27.92s0.01,0,0.04-0.01
			C2065.01,442.87,2122.15,427.72,2120.39,430.96z"/>
		<path class="st5" d="M2050.41,441.48c0,0,69.06,16.24,78.51-26.93c9.45-43.16,24.72-70.13-18.97-82.32
			c-43.69-12.19-55.89,2.4-62.55,16.04C2040.74,361.9,2032.69,436.14,2050.41,441.48z"/>
		<path class="st7" d="M2126.56,426.31c0.94,0.6,15.8,5.17,43.94-50.89c4.42-8.8,7.43-27.84-2.87-44.66
			c-10.3-16.82-46.81-30.05-77.15-35.8c-30.33-5.76-37.62,11.31-44.76,28.47c-7.5,18.01-29.16,32.83-29.16,32.83
			c26.16,14.61,57.67-6.29,68.58-2.85c10.92,3.44,14.77,20.64,15.59,26.15c0.82,5.51,2.08,10.1,15.8,5.17
			c13.73-4.92,6.21,19.45,4.01,24.11C2120.55,408.85,2118.68,421.27,2126.56,426.31z"/>
		<g>
			<path class="st8" d="M2304.46,1502.67h41.82c8.77,0,18.51-8.78,20.94-24.85c2.44-16.08,20.46-24.85,24.36-38
				c3.9-13.16-16.08-31.67-16.08-31.67l-3.34-4.29l-3.47-4.47l-33.12,7.79c0,0-0.82,7.89-1.33,17.93
				c-0.35,7.25-0.55,15.64-0.13,22.99c0.97,17.54-4.91,36.43-20.49,39.84C2298,1491.36,2304.46,1502.67,2304.46,1502.67z"/>
			<path class="st8" d="M2013.35,1502.67h110.84c1.06-0.21,1.87-0.44,2.35-0.68c7.4-3.71,5.08-32.04,4.19-40.79
				c-0.17-1.62-0.29-2.57-0.29-2.57s-38.98-31.17-44.34-7.3c-0.17,0.74-0.37,1.48-0.57,2.2v0.01
				c-6.77,22.33-37.01,32.48-54.48,35.31C2017.7,1491.01,2014.24,1498.79,2013.35,1502.67z"/>
			<path class="st9" d="M2035.69,863.48c0,0,5.92,73.85,12.88,162.63c9.46,120.59,20.83,268.72,21.95,296.79
				c1.95,48.73,9.75,126.67,9.75,126.67s18.5,18.52,55.54,10.71c0,0,33-111.27,42.43-229c0.15-1.93,0.29-3.87,0.44-5.82
				c8.77-119.85,22.41-372.22,22.41-372.22L2035.69,863.48z"/>
			<path class="st10" d="M2035.69,863.48c0,0,5.92,73.85,12.88,162.63l129.67,205.18c0.15-1.93,0.29-3.87,0.44-5.82
				c8.77-119.85,22.41-372.22,22.41-372.22L2035.69,863.48z"/>
			<path class="st9" d="M2062.72,872.25c0,0,106.69,267.47,176.85,393.16c70.16,125.69,92.08,160.77,92.08,160.77
				s40.19-16.08,43.85-27.04c0,0-26.83-242.66-73.81-301.81c-26.55-33.43-57.73-133.73-59.19-168.81
				c-1.46-35.08-9.5-104.5-9.5-104.5L2062.72,872.25z"/>
		</g>
		<g>
			<path class="st5" d="M2306.04,823.65l1.13,17.2c0,0-11.34,30.56,20.44,46.23c0,0,13.61,5.49,14.16-5.1
				c0.55-10.59-1.19-6.61-0.08-21.52c1.11-14.92-4.76-29.01-14.62-33.76l-8.1-9.34L2306.04,823.65z"/>
			<path class="st11" d="M2318.46,836.18c-11.81,3.79-13.7,2.93-13.7,2.93s-57.48-104.65-63.3-114.23
				c-5.82-9.58-122.04-117.35-122.04-117.35l29.87-111.37c0,0,132.18,171.17,146.46,195.73c23.59,40.59,37.41,134.85,37.41,134.85
				S2327.73,833.2,2318.46,836.18z"/>
		</g>
		<path class="st12" d="M2013.17,651.26c0.41,22.87,1.74,48.58,3.54,74.7c0.11,1.55,0.22,3.1,0.33,4.65
			c1.15,16.18,2.39,32.39,3.82,48.2c0.57,6.34,1.18,12.61,1.82,18.76l0.1,0.83c0.05,2.3,0.33,4.8,0.58,7.08
			c5.83,59.23,11.93,106.02,13.07,106.74c1.35,0.9,2.88,1.35,4.55,1.16c15.53-1.95,61.87,1.57,99.81-6.68
			c32.01-6.75,59.58-19.56,88.79-36.82c3.88-2.29,12.72-8.36,12-12.9c-0.71-4.99-2.01-12.19-3.67-21.25
			c-5.75-31.5-15.69-85.69-19.08-149.11c-0.66-11.81-1.62-23.48-2.87-34.95c-3.26-29.88-8.47-58.26-15.47-83.47
			c-13.01-46.84-32.12-82.71-56.1-96.74c-3.13-1.76-19.99,8.97-35.48,18.91c-14.3,9.17-29.36,11.7-44,10.42l-12.89,14.25
			c-15.6,18.14-32.22,42.29-36.76,76.62c-0.34,2.54-0.63,5.23-0.88,8.09C2013.12,613.73,2012.81,631.43,2013.17,651.26z"/>
		<path class="st11" d="M2013.17,651.26c0.41,22.87,1.74,48.58,3.54,74.7c0.11,1.55,0.22,3.1,0.33,4.65
			c88.72-55.53,102.38-157.15,102.38-157.15c-43.65,1.91-78.32,11.95-105.04,26.3C2013.12,613.73,2012.81,631.43,2013.17,651.26z"/>
		<path class="st12" d="M1789.01,695c-0.91-13.16,5.9-15.35,5.9-15.35s133.76-24.24,145.13-27.82
			c11.37-3.58,108.6-104.72,108.6-104.72s37.27-42.03,67.79-32.75c26.52,8.07,36.88,28.75,40.41,48.46
			c4.21,23.48-6.62,47.11-26.96,59.59c-45.65,28-137.04,83.16-158.56,89.47c-47.9,14.04-176.61,1.13-176.61,1.13
			S1789.73,705.33,1789.01,695z"/>
	</g>
	<path class="st13" d="M1946.4,951.92v497.2c0,29-23.73,52.74-52.73,52.74H1382.6c-4.43,0-8.75-0.55-12.88-1.57
		c-8.85-2.19-16.86-6.58-23.41-12.56c-4.68-4.27-8.6-9.35-11.55-15c-0.16-0.3-0.31-0.6-0.46-0.92c-3.06-6.15-4.98-12.96-5.47-20.14
		c-0.09-1.23-0.13-2.46-0.13-3.71V955.11c0-27.89,14.41-53.68,37.92-68.69c0,0,0.02-0.01,0.06-0.03
		c19.58-12.53,32.56-34.49,32.56-59.46c0-7.41-1.14-14.54-3.26-21.25h483.14c-2.12,6.71-3.26,13.84-3.26,21.25
		c0,23.95,11.93,45.11,30.17,57.86c0.01,0,0.01,0.01,0.02,0.01c1.22,0.85,2.46,1.66,3.73,2.43c0.01,0.01,0.01,0.01,0.01,0.01
		C1932.42,901,1946.4,925.42,1946.4,951.92z"/>
	<path class="st13" d="M1946.4,951.92v497.2c0,27.75-21.73,50.68-49.01,52.6c-1.23,0.09-2.47,0.13-3.72,0.13h-225.04
		c-29.65,0-53.9-24.26-53.9-53.9V955.11c0-27.89,14.41-53.68,37.92-68.69c19.62-12.52,32.63-34.49,32.63-59.5
		c0-7.41-1.14-14.54-3.26-21.25h197.09c-2.12,6.71-3.26,13.84-3.26,21.25c0,19.63,8.01,37.38,20.95,50.16
		c3.91,3.87,8.26,7.28,12.98,10.14C1932.42,901,1946.4,925.42,1946.4,951.92z"/>
	<path class="st14" d="M1906.03,884.78c-15.78-9.45-84.15-42.94-258-41.52c-199.14,1.63-278.91,41.88-281.35,43.13
		c19.58-12.53,32.56-34.49,32.56-59.46c0-7.41-1.14-14.54-3.26-21.25h483.14c-2.12,6.71-3.26,13.84-3.26,21.25
		C1875.86,850.86,1887.79,872.03,1906.03,884.78z"/>
	<path class="st9" d="M1890.06,802.19v22.55c0,2.23-1.81,4.04-4.03,4.04h-496.96c-2.23,0-4.04-1.81-4.04-4.04v-22.55
		c0-2.22,1.81-4.04,4.04-4.04h496.96C1888.25,798.15,1890.06,799.97,1890.06,802.19z"/>
	<path class="st10" d="M1890.06,802.19v22.55c0,2.23-1.81,4.04-4.03,4.04h-188.11c-2.22,0-4.04-1.81-4.04-4.04v-22.55
		c0-2.22,1.82-4.04,4.04-4.04h188.11C1888.25,798.15,1890.06,799.97,1890.06,802.19z"/>
	<g>
		<path class="st15" d="M1558.5,913.85c0,0-12.81,18.03-24.55,18.28c-11.74,0.25-29.61-8.36-29.61-8.36s-10.78-24.03-3.47-33.43
			c0,0,7.33-3.22,15,2.47c1.32,0.98,2.65,2.21,3.97,3.8c1.86,2.24,3.95,3.51,6.16,4.18c8.38,2.55,18.33-3.45,22.04,2.34
			c2.17,3.36,4.53,5.89,6.48,7.67C1556.83,912.85,1558.5,913.85,1558.5,913.85z"/>
		<path class="st15" d="M1391.51,1043.92c0,0,45.27-109.7,126.76-111.79c0,0,75.22,8.36,79.4,111.79H1391.51z"/>
		<path class="st16" d="M1495.95,935.48c0,0,32.66,7.26,42.74,2.99c0,0,1.52-13.66-12.23-11.74c-9.42,1.31-15.55-3.21-19.16-5.05
			C1502.2,919.09,1494.59,929.77,1495.95,935.48z"/>
		<path class="st17" d="M1524.38,914.9c-2.09,1.57-8.5-22.09-8.5-22.09c1.32,0.98,2.65,2.21,3.97,3.8c1.86,2.24,3.95,3.51,6.16,4.18
			C1526.03,901.48,1526.4,913.37,1524.38,914.9z"/>
		<path class="st17" d="M1554.53,910.8c-0.46,0.27-15.57,9.32-17.61,9.32c-2.09,0,11.14-16.99,11.14-16.99
			C1550.22,906.5,1552.59,909.02,1554.53,910.8z"/>
		<path class="st17" d="M1435.74,1013.28c-0.84-0.71,32.04-48.41,41.09-48.75c9.05-0.35,29.4,10.45,44.13,11.84
			c14.73,1.39,29.01-2.79,31.79,5.92c2.79,8.71,10.45,39.57,5.75,44.51C1553.8,1031.73,1453.82,1028.72,1435.74,1013.28z"/>
	</g>
	<g>
		<path class="st18" d="M1399.13,1464.29c-2.62,1.38-5.26,2.68-7.91,3.94c-2.53,1.46-5.1,2.9-7.72,4.27
			c-12.08,6.35-24.53,11.41-37.2,15.23c-4.68-4.27-8.6-9.35-11.55-15c-2.02,1.08-4.03,2.11-6.06,3.12V1100.7
			c9.31,1.24,18.53,3.1,27.56,5.54c50.68,13.7,95.81,45.94,123.26,93.37C1534.04,1293.84,1498.05,1412.34,1399.13,1464.29z"/>
		<g>
			<path class="st4" d="M1433.4,1184.84c-54.53-98.92-178.92-134.9-277.84-80.37c-98.92,54.53-134.9,178.92-80.38,277.84
				c54.53,98.92,178.92,134.9,277.84,80.38C1451.95,1408.15,1487.93,1283.76,1433.4,1184.84z"/>
			<path class="st1" d="M1345.09,1466.83c-2.52,1.54-5.08,3.02-7.69,4.46c-0.88,0.49-1.76,0.97-2.65,1.43
				c-2.02,1.08-4.03,2.11-6.06,3.12c-97.39,47.83-216.19,11.12-269.13-84.92c-50.5-91.61-23.36-205.07,59.51-264.65
				c6.61-4.75,13.56-9.16,20.87-13.19c2.62-1.45,5.27-2.83,7.92-4.14c2.58-1.29,5.18-2.51,7.79-3.67c8-3.57,16.14-6.58,24.36-9.04
				c12.21-3.68,24.61-6.16,37.03-7.47c38.53-4.08,77.29,2.96,111.65,19.77c36.47,17.83,68,46.67,89.09,84.92
				C1470.87,1289.77,1438.16,1410.22,1345.09,1466.83z"/>
			<g>
				<path class="st2" d="M1240.1,1480.72c-17.39,0-34.88-2.46-52.05-7.42c-47.81-13.83-87.38-45.45-111.4-89.04
					c-24.03-43.59-29.64-93.93-15.81-141.74c13.83-47.81,45.45-87.38,89.04-111.4c43.59-24.03,93.92-29.64,141.74-15.81
					c47.81,13.83,87.38,45.45,111.41,89.04s29.64,93.92,15.81,141.74c-13.83,47.81-45.45,87.38-89.04,111.4
					C1301.86,1472.89,1271.14,1480.72,1240.1,1480.72z M1086.39,1378.89c22.59,40.99,59.8,70.72,104.76,83.73
					c44.96,13.01,92.29,7.73,133.28-14.87c40.99-22.59,70.72-59.8,83.73-104.76c13.01-44.96,7.73-92.29-14.87-133.28
					s-59.8-70.72-104.76-83.73c-44.96-13-92.29-7.73-133.28,14.87c-40.99,22.59-70.72,59.8-83.73,104.76
					S1063.79,1337.9,1086.39,1378.89z"/>
			</g>
			<g>
				<path class="st2" d="M1329.96,1312.1c-0.4-1.01-0.83-1.98-1.27-2.94c-3.32-7.29-7.45-13.2-12.41-17.72
					c-5.6-5.11-12.11-8.94-19.53-11.49c-7.42-2.55-15.69-4.11-24.81-4.66c-9.13-0.56-19.06-0.69-29.8-0.39
					c-6.64,0.2-12.31,0.08-17.02-0.34c-4.7-0.43-8.7-1.3-11.98-2.62c-3.28-1.32-5.95-3.12-8-5.42c-2.05-2.28-3.74-5.08-5.08-8.38
					s-2.11-6.58-2.31-9.83c-0.2-3.24,0.29-6.32,1.45-9.25c1.17-2.91,3.07-5.61,5.7-8.08c2.63-2.48,6.11-4.59,10.43-6.35
					c7.98-3.24,15.43-3.17,22.34,0.21c6.91,3.38,12.54,10.43,16.89,21.14l41.67-16.92c-3.63-8.92-8.17-16.46-13.64-22.62
					c-5.46-6.15-11.62-10.9-18.47-14.26c-6.84-3.35-14.3-5.32-22.38-5.89c-8.06-0.57-16.45,0.29-25.15,2.57l-11.8-29.06l-23.06,9.36
					l11.63,28.66c-8.32,4.32-15.38,9.34-21.17,15.07c-5.79,5.74-10.24,11.94-13.35,18.6c-3.12,6.68-4.74,13.68-4.9,21.02
					c-0.15,7.34,1.31,14.81,4.39,22.39c3.55,8.75,8.13,15.68,13.73,20.79c5.6,5.11,12.1,8.92,19.5,11.42
					c7.4,2.51,15.67,4.01,24.83,4.5c9.16,0.5,19.12,0.49,29.88-0.03c6.24-0.35,11.66-0.32,16.25,0.11c4.59,0.42,8.56,1.3,11.91,2.65
					c3.34,1.35,6.12,3.23,8.34,5.66c2.22,2.43,4.09,5.52,5.61,9.26c1.34,3.31,2.01,6.59,1.99,9.88c-0.01,3.28-0.75,6.42-2.23,9.41
					c-1.47,2.99-3.68,5.76-6.62,8.31c-2.94,2.54-6.67,4.73-11.19,6.57c-3.94,1.6-8.01,2.65-12.23,3.17
					c-4.21,0.51-8.32,0.1-12.34-1.23c-4.01-1.34-7.77-3.76-11.26-7.28c-3.5-3.51-6.54-8.44-9.11-14.78l-41.66,16.92
					c4.34,10.71,9.81,19.21,16.39,25.47c6.58,6.27,13.77,10.77,21.58,13.46c7.82,2.7,15.99,3.89,24.53,3.54
					c8.53-0.34,16.96-1.73,25.26-4.17l10.76,26.52l22.92-9.31l-10.82-26.64c8.32-4.32,15.45-9.3,21.39-14.93
					c5.5-5.22,9.8-10.83,12.91-16.86c0.25-0.49,0.49-0.97,0.73-1.47c3.14-6.58,4.82-13.55,5.02-20.91
					C1334.65,1327.56,1333.15,1319.95,1329.96,1312.1z"/>
			</g>
		</g>
		<g>
			<path class="st8" d="M1086.71,572.17c0.62-2.51-54.47,24.9-57.27,28c-25.84,28.66-18.47,66.07-3.69,66.43
				c9.48,0.23,7.65,16,7.65,16l105.64-44.69C1139.04,637.91,1126.32,563.73,1086.71,572.17z"/>
			<path class="st8" d="M1099.72,577.96c0,0,3.78-41.15-42.21-41.15c0,0,13.93,3.78,21.14,11.34c0,0-29.33-17.22-61.24,9.24
				c-31.92,26.46-12.08,92.81-21.79,105.41c-9.7,12.6-47.5,15.12-42.88,55.85c4.62,40.73,119.95,91.75,112.54,125.46
				c0,0,45.2-66.44,12.88-96.76c0,0,15.75,14.84,17.36,32.48c0,0,4.28-34.44-17.64-45.45c-19.39-9.75-35.28-45.39-33.59-51.76
				C1045.97,676.23,1099.72,577.96,1099.72,577.96z"/>
			<path class="st19" d="M1057.97,771.57c-7.09-34.14-51.36-44.73-72.31-16.85c-3.77,5.01-6.42,10.94-7.28,17.94
				c-4.78,38.76,57.19,196.62,66.06,210.91c16.16,26.02,111.29,115.23,111.29,115.23l17.53-10.63c0,0-67.48-114.24-77.93-124.93
				C1083.25,950.88,1071.43,836.4,1057.97,771.57z"/>
			<path class="st19" d="M1149.06,1088.22c0,0,25.59-16.8,35.28-15.72c9.69,1.08,37.73,9.15,38.07,13.27
				c0.34,4.12-31.24,6.69-33.36,8.95c-2.12,2.25-23.57,16.57-31.34,12.08C1149.93,1102.31,1149.06,1088.22,1149.06,1088.22z"/>
			<path class="st9" d="M970.56,1467.82l-22.86-3.36c0,0-76.87-61.08-88.31-175.07c-1.17-11.6-1.41-23.37-0.55-35.24
				c0.1-1.37-0.05-2.74-0.8-3.89c0-0.01-0.01-0.02-0.03-0.03c-2.46-3.77-8.58-13.22-16.87-26.66
				c-8.17-13.24-22.16-38.27-37.54-66.35c-27.72-50.58-59.98-111.07-71.05-130.33c-35.27-61.4-18.27-102.69-18.27-102.69
				s98.38-9.73,125.34-33.31l9.71,14.97c0,0,21.32,94.37,20.31,94.81c1.05,3.21,2.12,6.48,3.2,9.8
				c16.82,51.92,36.17,116.82,46.72,169.67c5.93,29.74,9.07,55.65,7.38,73.3c-0.58,6.06,0.12,15.36,1.74,26.85
				C938.21,1348.01,970.56,1467.82,970.56,1467.82z"/>
			<path class="st10" d="M1018.52,1496.74h-95.38c0,0-2.29-14.54,2.7-25.56c4.77-10.58,11.58-10.92,0.87-27.51
				c6.06,6.24,25.54,8.82,39.33,6.97c1.69,2.74,10.89,21.12,16.54,25.17C988.8,1480.28,1016.6,1478.69,1018.52,1496.74z"/>
			<path class="st10" d="M872.84,1010.46c-8.33,45.95-28.01,122.42-69.24,146.76c-27.72-50.58-59.98-111.07-71.05-130.33
				c-35.27-61.4-18.27-102.69-18.27-102.69s98.38-9.73,125.34-33.31l9.71,14.97c0,0,21.32,94.37,20.31,94.81
				C870.69,1003.86,871.76,1007.13,872.84,1010.46z"/>
			<path class="st20" d="M1047.76,750.39c0,0,13.49,14.02,19.64,30.82c0,0-21.51,61.78-71.79,69.52
				C995.62,850.73,1035.4,750.37,1047.76,750.39z"/>
			<path class="st9" d="M805.95,931.29l0.32-17.84c-35.54,4.48-122.55-42.47-122.55-42.47s-37.18,24.73-42.27,95.36
				c-2.48,34.47-18.2,180.26-19.94,223.79c-0.63,15.78-0.84,27.04-0.92,31.54c0.01,0.02,0.01,0.03,0,0.04
				c-0.02,1.37-0.67,2.58-1.51,3.67c-7.35,9.35-13.73,19.25-19.26,29.52c-54.23,100.9-25.87,238.01-25.87,238.01l12.59-3.2
				c0,0,45.86-142.13,75.83-203.61c5.09-10.43,9.71-18.54,13.57-23.23c11.27-13.69,23.15-36.93,34.86-64.9
				c22.14-52.89,43.63-122.67,58.96-176.71C770.87,1021.45,805.95,931.29,805.95,931.29z"/>
			<path class="st5" d="M1013.93,812.23c-58.1-13.33-20.98-94.98-17.62-93.54c8.05-1.64,25.73-15.78,41.55-43.38l2.14,1.85
				l35.68,31.29c0,0-8.25,12.17-15.19,24.09c-5.42,9.33-10.03,18.53-9.3,21.68C1054.07,756.48,1029.43,815.79,1013.93,812.23z"/>
			<path class="st19" d="M1075.69,708.46c0,0-8.25,12.15-15.19,24.09c-22.19-13.68-22.21-41.14-20.5-55.37L1075.69,708.46z"/>
			<path class="st5" d="M1076.68,724.13c0,0-53.87-29.98-34.69-63.24c19.18-33.26,25.15-59.53,60.36-41.8
				c35.21,17.73,34.51,34.25,30.81,46.9C1129.45,678.66,1091.18,731.07,1076.68,724.13z"/>
			<path class="st8" d="M1142.25,646.6c-2.47-14.77-9.97-16.18-15.2-15.19c-19.9-32.9-52.4-20.06-52.4-20.06
				c-17.36,21.79-42.46,25.5-42.46,25.5s6.25,11.63,32.01,18.83c7.87,2.2,16.8,0.87,25.41-2.03c-17.87,9.96-36.56,13.78-36.56,13.78
				c33.94,3.11,66.24-27.92,69.59-31.24c1.57,4.81,4.31,14.88,2.67,22.24c-2.23,10-11.11,28.12-5.69,30.46
				C1119.62,688.89,1145.95,668.75,1142.25,646.6z"/>
			<path class="st10" d="M649.81,1496.74h-95.38c0,0-2.29-14.54,2.7-25.56c4.77-10.58,12.25-15.39,10.46-28.2
				c6.06,6.24,15.94,13.23,29.73,11.37c1.69,2.74,10.91,17.4,16.55,21.45C620.09,1480.28,647.89,1478.69,649.81,1496.74z"/>
			<path class="st21" d="M1020.77,876.96c-12.27,4.28-29.5,6.63-47.12,8.54c-25.08,2.74-50.97,4.61-64.54,10.02
				c-4.95,1.97-8.26,4.41-9.29,7.52c-5.88,17.68-31.79,44.96-31.79,44.96c-166.08-7.56-184.31-77.03-184.31-77.03
				c111.74-129.93,300.93-167.54,300.93-167.54s13.51-5.73,47.54,21.32c22.71,18.06,19.72,24.99,19.72,24.99
				S1056.89,864.36,1020.77,876.96z"/>
			<path class="st20" d="M973.65,885.5c-25.08,2.74-50.97,4.61-64.54,10.02c-5.54-82.83,33.55-145.13,33.55-145.13
				S968.16,854.16,973.65,885.5z"/>
			<path class="st5" d="M999.46,734.36c0,0-62.86,6.21-67.89,47.05c-5.04,40.84,60.26,207.19,69.61,222.26
				c17.03,27.42,117.28,121.42,117.28,121.42l18.48-11.2c0,0-71.11-120.38-82.12-131.65
				C1037.53,964.56,1020.75,748.51,999.46,734.36z"/>
			<path class="st21" d="M933.38,805.99c0.16,0.93,58.01,18.9,95.23,0c0,0,7.97-85.89-36.48-81.23
				c-44.44,4.66-70.76,18.66-71.88,39.94C919.14,785.97,933.38,805.99,933.38,805.99z"/>
			<path class="st5" d="M1112.75,1113.15c0,0,22.55-20.71,32.28-21.2c9.74-0.49,38.71,2.95,39.71,6.96
				c1,4.01-29.75,11.64-31.48,14.21c-1.73,2.57-20.59,20.15-28.98,16.97C1115.88,1126.92,1112.75,1113.15,1112.75,1113.15z"/>
		</g>
	</g>
	<path class="st22" d="M2860.13,1503.22H276.72c-1.61,0-2.93-1.32-2.93-2.93v-1c0-1.61,1.32-2.93,2.93-2.93h2583.41
		c1.61,0,2.93,1.32,2.93,2.93v1C2863.06,1501.9,2861.74,1503.22,2860.13,1503.22z"/>
</g>
</svg>
