<svg id="Layer_1" data-name="Layer 1" xmlns="http://www.w3.org/2000/svg" viewBox="0 0 228.54 249.59"><defs><style>.cls-1{fill:navy;}</style></defs><title>bonus</title><path class="cls-1" d="M154.19,323.18c17,12.07,36.54,15.86,56.33,18.6A339,339,0,0,0,312,340.63c13.82-2.26,27.48-5.43,40-12.11,2.91-1.56,5.62-3.47,8.77-5.43,2.36,7.77,4.71,15.45,7,23.15,1.2,4,2.18,8,3.59,11.92.94,2.6.26,4.66-1.72,5.93-4.07,2.6-8.18,5.35-12.65,7.07-17.3,6.64-35.48,9.51-53.81,11.38a436,436,0,0,1-102.31-1.3c-16.47-2.19-32.82-5.19-48.12-12.17-1.19-.54-2.35-1.14-3.48-1.79-6.4-3.67-7-5.22-5-12.19,3-9.89,6-19.76,9-29.63C153.51,324.69,153.87,324,154.19,323.18ZM336,356.68l-48.91,7.8c.21,2.69.44,5.77.69,9a258,258,0,0,0,50.75-8.09C337.56,362.2,336.71,359.28,336,356.68Zm9.55-3.69c1.19,3.22,2.26,6.13,3.43,9.33l10.15-4.15-4-9Zm-165.89-7.16c-1,3.33-1.82,6.23-2.78,9.49l9.86,2.42c.81-3.4,1.52-6.41,2.28-9.61Zm-9.31-3-8.74-3.53c-1.43,3.06-2.71,5.82-4.14,8.89l9.55,4C168.16,348.86,169.18,346,170.31,342.82Zm36.36,18.62c.54-3.49,1-6.48,1.5-9.76l-9.53-1.58c-.63,3.31-1.2,6.37-1.82,9.64Z" transform="translate(-143.26 -135.34)"/><path class="cls-1" d="M257.49,195.47c5.93,0,12.41-1.5,17.64.42s9.1,7.36,13.71,11.08c11.23,9.06,19.47,19.95,22.39,34.47,6.44,32-18.14,62.82-50.79,63.63-23.73.59-41.63-8.95-52.59-30.24-10.16-19.75-5.79-45.09,10.36-60.78,6.29-6.11,13.09-11.72,19.76-17.42a6.51,6.51,0,0,1,3.85-1.25c5.22-.14,10.44-.06,15.67-.06Zm-20.06,29.84c0,4.66,0,8.81,0,13,0,.94,0,1.9,0,2.84.43,6.33,4.42,11.71,10.64,13.23a36.33,36.33,0,0,0,10.92.76c7.75-.52,9.38,3.53,7.78,10.07-4,0-8-.15-12,.05s-6.8-.83-7.6-4.88H236.68c1.45,3.33,2.34,6.41,4,9,2.62,4,7,5.4,11.85,6.06v9.54h9.87v-10h14.87c0-5.27.1-10.14,0-15-.18-7-4.54-12.63-11.38-14.09a37.61,37.61,0,0,0-10.6-.53c-6.66.49-9.14-2.94-7.35-10.1,3.85,0,7.76.16,11.65-.05s7.09.63,8,4.91h9.49c.06-7.92-4.38-12.53-14.86-15.29v-9.3h-9.87v9.82Z" transform="translate(-143.26 -135.34)"/><path class="cls-1" d="M263.79,335.1c-30.23-.34-53.78-1.92-76.72-8.21-7-1.94-13.77-5-20.62-7.67a15.34,15.34,0,0,1-2.76-1.62c-7.9-5.11-7.95-9.84,0-15,8.9-5.79,19.07-8.24,29.14-11.06,7.69-2.16,14.43-2.83,18.88,5.43,27.11,26.3,71.48,23.93,96-5.22,1.73-2.06,3.23-2.6,5.74-1.88,9.44,2.72,19,4.92,28.35,8.06A42.59,42.59,0,0,1,354,305c4.34,3.41,4.35,7-.11,10.28a61,61,0,0,1-13.62,7.53c-13.65,5.4-28,8.25-42.54,9.72C284.29,333.91,270.77,334.59,263.79,335.1Z" transform="translate(-143.26 -135.34)"/><path class="cls-1" d="M257.41,185.38c-4.86,0-9.74.16-14.59-.09a6.53,6.53,0,0,1-4.37-2q-11.87-15.35-23.36-31c-4.46-6-2.88-13,3.33-15.85,3.14-1.42,6-1.34,8.29,1.58.66.83,1.45,1.56,2.18,2.34,6.49,6.83,15.41,6.84,21.94,0s6.6-6.7,13,0c6.93,7.27,15.5,6.79,23.16-1.3,3.83-4,6.07-4.53,10.2-2.22a9.58,9.58,0,0,1,4.59,11.25,13.07,13.07,0,0,1-1.87,3.8c-7.93,10.66-15.89,21.3-24,31.85a5.15,5.15,0,0,1-3.56,1.56C267.39,185.48,262.4,185.38,257.41,185.38Z" transform="translate(-143.26 -135.34)"/></svg>