<?xml version="1.0" encoding="utf-8"?>
<!-- Generator: Adobe Illustrator 23.0.1, SVG Export Plug-In . SVG Version: 6.00 Build 0)  -->
<svg version="1.1" id="Layer_1" xmlns="http://www.w3.org/2000/svg" xmlns:xlink="http://www.w3.org/1999/xlink" x="0px" y="0px"
	 viewBox="0 0 512 512" style="enable-background:new 0 0 512 512;" xml:space="preserve">
<style type="text/css">
	.st0{fill:#4B3B97;}
</style>
<g id="_05-security">
	<g id="Glyph">
		<path class="st0" d="M484.42,70.25l-64-64c-6.68-6.68-16.97-8.17-25.27-3.66C355.21,24.2,307.1,24.38,267.01,3.06
			c-6.77-4.08-15.24-4.08-22.02,0c-40.12,21.2-88.17,21.02-128.14-0.47c-8.3-4.51-18.59-3.02-25.27,3.66l-64,64
			c-4,4-6.25,9.43-6.25,15.09V320c0,6.48,2.94,12.61,8,16.66l213.33,170.67c7.79,6.24,18.87,6.24,26.67,0l213.33-170.67
			c5.06-4.05,8-10.18,8-16.66V85.33C490.67,79.67,488.42,74.25,484.42,70.25z M426.67,289.24c0,6.48-2.94,12.61-8,16.66
			L269.33,425.37c-7.79,6.24-18.87,6.24-26.67,0L93.33,305.9c-5.06-4.05-8-10.18-8-16.66V111.85c0-5.66,2.25-11.09,6.25-15.09
			l15.49-15.47c5.46-5.44,13.42-7.53,20.84-5.46c39.86,10.88,82.11,9.21,120.98-4.8c4.59-1.62,9.6-1.62,14.2,0
			c38.87,14.01,81.12,15.68,120.98,4.8c7.42-2.07,15.39,0.01,20.84,5.46l15.49,15.47c4,4,6.25,9.43,6.25,15.09V289.24z"/>
		<path class="st0" d="M389.87,96.35c-18.88,5.27-38.39,7.93-57.99,7.91c-25.86-0.03-51.52-4.48-75.88-13.14
			c-24.36,8.66-50.02,13.1-75.87,13.14c-19.6,0.02-39.1-2.64-57.98-7.91l-15.49,15.5v177.39L256,408.7l149.33-119.47V111.85
			L389.87,96.35z M249.75,292.42c-8.33,8.33-21.83,8.33-30.17,0l-42.67-42.67l30.17-30.18l27.58,27.58l70.25-70.25l30.17,30.18
			L249.75,292.42z"/>
	</g>
</g>
</svg>
